<?xml version="1.0" standalone="no"?>
<!DOCTYPE svg PUBLIC "-//W3C//DTD SVG 20010904//EN"
 "http://www.w3.org/TR/2001/REC-SVG-20010904/DTD/svg10.dtd">
<svg version="1.0" xmlns="http://www.w3.org/2000/svg"
 width="512.000000pt" height="512.000000pt" viewBox="0 0 512.000000 512.000000"
 preserveAspectRatio="xMidYMid meet">
<metadata>
Created by potrace 1.14, written by Peter Selinger 2001-2017
</metadata>
<g transform="translate(0.000000,512.000000) scale(0.100000,-0.100000)"
fill="#000000" stroke="none">
<path d="M954 4301 c-61 -28 -89 -73 -89 -143 0 -84 52 -144 133 -155 78 -10
155 45 173 124 16 73 -38 163 -111 183 -48 13 -59 12 -106 -9z"/>
<path d="M2415 4149 c-178 -21 -397 -89 -535 -166 -355 -197 -645 -543 -773
-923 -69 -203 -81 -285 -81 -555 0 -228 1 -246 28 -360 69 -294 197 -523 416
-745 354 -360 788 -524 1297 -490 396 27 734 187 1019 482 230 239 373 508
436 821 20 96 23 142 23 327 -1 185 -4 230 -24 320 -32 148 -73 265 -137 391
-81 158 -162 267 -309 414 -270 272 -550 416 -915 475 -93 15 -351 20 -445 9z
m396 -884 c258 -67 467 -268 549 -530 34 -108 38 -274 11 -390 -65 -274 -261
-482 -531 -567 -99 -30 -318 -33 -420 -5 -490 135 -718 700 -459 1140 81 138
246 275 394 328 144 50 318 60 456 24z"/>
<path d="M2267 2942 c-15 -17 -17 -59 -17 -400 l0 -381 22 -15 c25 -17 152
-22 176 -7 28 17 8 46 -40 61 l-48 15 0 229 c0 126 2 227 4 225 2 -2 52 -88
110 -191 66 -116 114 -189 126 -193 42 -13 59 6 166 196 59 104 111 186 114
182 4 -5 12 -118 19 -251 7 -134 15 -250 17 -257 8 -20 33 -26 55 -15 18 10
19 26 19 399 0 377 -1 388 -20 406 -16 15 -26 17 -48 9 -22 -8 -52 -54 -161
-252 -74 -133 -138 -242 -141 -242 -4 0 -66 108 -139 240 -73 132 -141 245
-151 250 -27 15 -45 12 -63 -8z"/>
<path d="M4065 933 c-33 -8 -84 -52 -101 -85 -21 -40 -14 -120 13 -156 37 -49
71 -67 128 -67 156 0 212 193 84 287 -27 20 -89 31 -124 21z"/>
</g>
</svg>
